<svg xmlns="http://www.w3.org/2000/svg" viewBox="0 0 37.19 23.6"><path d="M35.77 8.1a1.36 1.36 0 00-1.42 1.38v2.26H32V4.95a1.42 1.42 0 00-2.84 0v6.8h-2.53v-8.3a1.42 1.42 0 00-2.84 0v8.31h-2.52V1.38a1.42 1.42 0 00-2.84 0v10.37H16V5.52a1.42 1.42 0 00-2.84 0v6.28h-2.31V3.74a1.36 1.36 0 00-1.42-1.38A1.36 1.36 0 008 3.74v8H5.52v-4A1.36 1.36 0 004.1 6.39a1.36 1.36 0 00-1.42 1.38v4H0v4.18a1.36 1.36 0 001.42 1.38 1.36 1.36 0 001.42-1.38v-3.88h2.55V20a1.36 1.36 0 001.42 1.38A1.36 1.36 0 008.23 20v-8h2.32v6.28A1.36 1.36 0 0012 19.62a1.36 1.36 0 001.42-1.38V12h2.39v10.21a1.42 1.42 0 002.84 0V12h2.5v8.2a1.42 1.42 0 002.84 0V12h2.49v6.8a1.42 1.42 0 002.84 0V12h2.45v2.26a1.42 1.42 0 002.84 0V12h2.61V9.49a1.36 1.36 0 00-1.45-1.39z" fill="#000"/><path d="M5.56 12.07V7.8a1.36 1.36 0 00-1.42-1.38A1.36 1.36 0 002.72 7.8v4.27z" fill="#000"/><path d="M10.84 12V3.77a1.36 1.36 0 00-1.42-1.38A1.36 1.36 0 008 3.77V12z" fill="#000"/><path d="M16 12V5.55a1.42 1.42 0 00-2.84 0V12z" fill="#000"/><path d="M0 11.8v4.27a1.36 1.36 0 001.42 1.38 1.36 1.36 0 001.42-1.38V11.8z" fill="#000"/><path d="M5.38 11.8V20a1.36 1.36 0 001.42 1.37A1.36 1.36 0 008.21 20v-8.2z" fill="#000"/><path d="M10.56 11.8v6.4A1.36 1.36 0 0012 19.59a1.36 1.36 0 001.4-1.39v-6.4z" fill="#000"/><path d="M15.76 11.8v10.41a1.42 1.42 0 002.84 0V11.8z" fill="#000"/></svg>
